<svg xmlns="http://www.w3.org/2000/svg" viewBox="0 0 480 320" role="img" aria-label="Футбольный мяч">
  <rect width="480" height="320" fill="#eef7f0"/>
  <circle cx="240" cy="160" r="102" fill="#fff" stroke="#1f2937" stroke-width="8"/>
  <polygon points="240,101 289,137 270,195 210,195 191,137" fill="#111827"/>
  <path d="M240 58v43M337 126l-48 11M300 251l-30-56M180 251l30-56M143 126l48 11" fill="none" stroke="#111827" stroke-width="7"/>
  <path d="M129 160c32 22 55 57 65 97M351 160c-32 22-55 57-65 97M157 84c39 8 67 14 83 17M323 84c-39 8-67 14-83 17" fill="none" stroke="#111827" stroke-width="5"/>
</svg>
